<?xml version="1.0" encoding="utf-8"?>
<!-- Generator: Adobe Illustrator 16.0.0, SVG Export Plug-In . SVG Version: 6.00 Build 0)  -->
<!DOCTYPE svg PUBLIC "-//W3C//DTD SVG 1.1//EN" "http://www.w3.org/Graphics/SVG/1.1/DTD/svg11.dtd">
<svg version="1.1" xmlns="http://www.w3.org/2000/svg" xmlns:xlink="http://www.w3.org/1999/xlink" x="0px" y="0px" width="256px"
	 height="256px" viewBox="0 0 256 256" enable-background="new 0 0 256 256" xml:space="preserve">
<g id="Background" display="none">
	<rect display="inline" fill="#141414" width="256" height="256"/>
</g>
<g id="Calque_1" display="none">
	<path display="inline" fill="#FB9553" d="M256,242c0,3.313-2.687,6-6,6H140c-3.313,0-6-2.687-6-6v-39c0-3.313,2.687-6,6-6h110
		c3.313,0,6,2.687,6,6V242z"/>
	<path display="inline" fill="#FFFFFF" d="M67.459,188.792c18.499,0,34.151,15.652,34.151,34.149
		c0,18.144-15.652,33.439-34.151,33.439c-18.143,0-33.439-15.296-33.439-33.439C34.02,204.444,49.316,188.792,67.459,188.792z"/>
	<path display="inline" fill="#FFFFFF" d="M41.846,149.304v-14.94c0-29.882,49.092-43.045,49.092-65.812
		c0-11.027-11.384-20.988-26.68-20.988c-24.902,0-31.661,22.412-40.555,14.586l-21.7-21.345c-2.846-2.49-2.491-6.759,0-9.249
		c0,0,26.325-31.306,72.214-31.306c37.708,0,72.57,26.325,72.57,62.254c0,46.958-53.361,48.38-53.361,86.8
		c0,3.914-3.201,6.759-6.759,6.759H48.604C45.047,156.063,41.846,153.218,41.846,149.304z"/>
	<path display="inline" fill="#DB4648" d="M250,103h-81.609c-8.509,14.809-20.617,24.786-29.958,32.47
		c-10.332,8.499-13.005,11.344-13.005,13.834c0,1.591-0.108,3.155-0.295,4.696H250c3.313,0,6-2.687,6-6v-39
		C256,105.687,253.313,103,250,103z"/>
	<path fill="#FF0000" d="M67.459,288.381c-17.322,0-33.712-6.85-46.15-19.288S2.02,240.264,2.02,222.941
		c0-17.366,6.764-33.843,19.045-46.393c-6.934-7.005-11.219-16.634-11.219-27.245v-14.94c0-15.86,6.021-28.509,13.983-38.744
		c-7.798-0.785-15.087-4.011-21.266-9.448l-1.3-1.21l-21.332-20.983c-7.255-6.826-11.578-16.355-11.91-26.356
		c-0.337-10.136,3.385-20.086,10.254-27.547c6.318-7.171,39.768-41.826,95.943-41.826c57.66,0,104.57,42.282,104.57,94.254
		c0,39.768-24.285,59.746-40.355,72.966c-10.332,8.499-13.005,11.344-13.005,13.834c0,10.576-4.259,20.178-11.15,27.178
		c12.468,12.56,19.333,29.05,19.333,46.46c0,17.45-7.017,33.927-19.758,46.395C101.302,281.617,84.826,288.381,67.459,288.381z
		 M67.459,220.792c-0.361,0.109-1.439,1.134-1.439,2.149c0,0.471,0.969,1.439,1.439,1.439c1.017,0,2.042-1.078,2.161-1.536
		C69.61,222.118,68.283,220.792,67.459,220.792z"/>
	<path display="inline" fill="#9F3647" d="M250,8h-90.514c11.447,14.507,18.449,32.049,19.222,51H250c3.313,0,6-2.687,6-6V14
		C256,10.687,253.313,8,250,8z"/>
</g>
<g id="Calque_1_-_copie">
	<path display="none" fill="#FB9553" d="M121.136,139.119c9.635,0,17.788,8.154,17.788,17.789c0,9.449-8.152,17.416-17.788,17.416
		c-9.449,0-17.417-7.967-17.417-17.416C103.72,147.273,111.687,139.119,121.136,139.119z"/>
	<path id="XMLID_7_" fill="#FB9553" d="M108.569,138.814c0,5.81-2.037,10.747-6.106,14.813c-4.063,4.067-9.002,6.1-14.812,6.1
		c-5.811,0-10.749-2.032-14.815-6.1c-4.067-4.066-6.101-9.004-6.101-14.813c0-5.811,2.033-10.75,6.101-14.817
		c4.066-4.065,9.004-6.1,14.815-6.1c5.81,0,10.75,2.035,14.812,6.1C106.532,128.064,108.569,133.004,108.569,138.814z"/>
	<polygon id="XMLID_6_" display="none" fill="#DB4648" points="211.35,178.167 211.35,213.688 45.267,213.688 45.267,208.366 
		83.013,170.618 101.887,189.491 162.279,129.098 	"/>
	<polygon id="XMLID_1_" fill="#DB4648" points="227,185.443 227,227.66 29.616,227.66 29.616,221.334 74.476,176.472 
		96.907,198.902 168.682,127.126 	"/>
	<path fill="#FB9553" d="M70.587,93.733v-9.396c0-18.791,30.872-27.068,30.872-41.385c0-6.935-7.158-13.199-16.778-13.199
		c-15.66,0-19.91,14.094-25.503,9.172L45.532,25.503c-1.79-1.566-1.566-4.25,0-5.816c0,0,16.555-19.687,45.413-19.687
		c23.713,0,45.636,16.554,45.636,39.149c0,29.53-33.556,30.424-33.556,54.584c0,2.461-2.013,4.25-4.25,4.25H74.837
		C72.6,97.984,70.587,96.195,70.587,93.733z"/>
	<path display="none" fill="#00FF00" d="M98.774,110.319H74.837c-9.512,0-17.25-7.738-17.25-17.25v-9.396
		c0-16.284,12.65-26.397,21.888-33.782c2.665-2.131,6.426-5.137,8.216-7.191c-0.67-0.316-1.667-0.611-3.01-0.611
		c-3.687,0-5.808,1.531-9.237,4.238c-3.197,2.522-7.574,5.976-13.816,5.978c-0.001,0-0.002,0-0.003,0
		c-2.814,0-7.011-0.744-11.034-4.284l-0.528-0.491L36.595,34.282c-3.281-3.045-5.164-7.175-5.313-11.683
		c-0.151-4.561,1.546-9.038,4.674-12.374c2.99-3.356,22.606-23.891,54.989-23.891c32.332,0,58.636,23.394,58.636,52.149
		c0,21.644-13.166,32.476-22.779,40.384c-7.821,6.434-10.776,9.325-10.776,14.201C116.024,102.581,108.286,110.319,98.774,110.319z
		 M83.587,84.319h7.484c3.058-12.24,12.198-19.76,19.211-25.53c8.738-7.188,13.297-11.356,13.297-20.305
		c0-15.642-16.875-26.149-32.636-26.149c-13.576,0-23.677,5.478-29.575,9.847l1.257,1.236c4.719-3.362,11.902-7.329,22.055-7.329
		c16.419,0,29.778,11.752,29.778,26.199c0,12.923-10.396,21.234-18.749,27.912c-5.401,4.317-12.123,9.691-12.123,13.473V84.319z"/>
	<path fill="#9F3647" d="M249.723,79.256C245.539,75.073,240.508,73,234.638,73H134.022c-3.434,2-5.601,3.328-7.616,4.986
		C120.154,83.13,117.957,86,117.999,90h116.639c1.157,0,2.203,0.45,3.051,1.297c0.841,0.845,1.312,1.872,1.312,3.031v140.31
		c0,1.153-0.471,2.201-1.312,3.051c-0.848,0.841-1.894,1.312-3.051,1.312H20.989c-1.158,0-2.017-0.471-2.862-1.312
		c-0.847-0.85-1.127-1.897-1.127-3.051V94.328c0-1.159,0.28-2.187,1.127-3.031C18.972,90.45,19.831,90,20.989,90H58v-6
		c0-4.045,0.627-8,1.987-11H20.989c-5.875,0-10.716,2.073-14.901,6.256C1.904,83.443,0,88.452,0,94.328v140.31
		c0,5.87,1.904,10.901,6.087,15.084c4.185,4.185,9.026,6.278,14.901,6.278h213.649c5.87,0,10.901-2.094,15.085-6.278
		c4.184-4.183,6.277-9.214,6.277-15.084V94.328C256,88.452,253.906,83.443,249.723,79.256z"/>
	<path display="none" fill="#9F3647" d="M246.146,202.971c5.842-5.418,9.854-12.204,9.854-20.65
		c0-11.698-7.229-19.961-11.627-23.164c4.398-3.2,11.627-11.463,11.627-23.161c0-8.444-4.007-15.233-9.856-20.654
		c-4.259-3.947-7.94-7.356-7.911-10.705c0.044-4.077,0.365-7.198,4.197-10.22c5.567-4.398,7.532-8.739,6.007-13.26l-0.185-0.55
		l-16.62-12.411l-0.704-0.133c-5.923-1.159-3.104,0.333-9.432,4.565c-4.357,2.908-8.845,3.153-14.775,3.182
		c-4.812,0-9.698-2.785-15.36-6.011c-7.801-4.441-17.57-7.487-29.725-7.487c-8.275,0-15.352,1.305-20.961,3.038
		c-4.295,5.631-9.458,9.688-13.874,13.321C119.349,84.801,116.321,88,116.051,92H224v134H33V92h25v-8.328
		c0-3.803,0.49-7.265,1.665-10.439c-3.153,1.538-6.23,2.576-9.195,2.576c-5.868-0.028-10.414-0.273-14.764-3.182
		c-6.332-4.229-3.569-5.713-9.46-4.565l-0.709,0.136L8.909,80.606l-0.192,0.552c-1.521,4.52,0.436,8.855,6.008,13.264
		c3.822,3.02,4.149,6.14,4.186,10.216c0.031,3.35-3.646,6.76-7.904,10.708c-5.85,5.416-9.857,12.211-9.857,20.649
		c0,11.698,7.228,19.961,11.628,23.161c-4.4,3.203-11.628,11.466-11.628,23.164c0,8.444,4.012,15.23,9.856,20.65
		c4.258,3.943,7.933,7.356,7.903,10.699c-0.037,4.083-0.361,7.2-4.187,10.227c-5.569,4.4-7.532,8.737-6.01,13.263l0.189,0.546
		l16.621,12.406l0.688,0.137c5.906,1.145,3.112-0.333,9.438-4.563c4.351-2.909,8.843-3.153,14.775-3.188
		c4.805,0,9.691,2.786,15.355,6.013c7.806,4.439,17.579,7.49,29.732,7.49c16.493,0,28.235-5.184,33.06-8.617
		c4.828,3.436,16.567,8.617,33.063,8.617c12.154,0,21.924-3.043,29.725-7.49c5.664-3.225,10.56-6.013,15.424-6.013
		c5.868,0.035,10.362,0.468,14.714,3.377c4.969,3.321,0.982,5.126,5.606,5.126c0.011,0,0.011,0,0.011,0
		c1.263,0,2.551-0.313,3.814-0.563l0.704-0.231l16.62-12.453l0.186-0.569c1.524-4.525-0.44-8.874-6.008-13.274
		c-3.832-3.02-4.153-6.149-4.197-10.232C238.203,210.337,241.884,206.914,246.146,202.971z"/>
	<path display="none" fill="#9F3647" d="M133.632,73c-2.33,2.163-4.67,4.09-6.831,5.868c-6.051,4.978-9.18,7.836-10.291,11.132H239
		v149H17V90h41v-6.328c0-3.896,0.317-7.436,1.545-10.672H0v183h256V73H133.632z"/>
</g>
</svg>
